<svg width="50" height="54" viewBox="0 0 50 54" fill="none" xmlns="http://www.w3.org/2000/svg">
<rect width="50" height="54" rx="25" fill="#E5E5E5"/>
<path d="M16.6667 22L21.2963 18C21.2963 18 16.6667 28.5 16.6667 32" stroke="#1434E1" stroke-width="2" stroke-linecap="round" stroke-linejoin="round"/>
<path d="M25.4036 18C24.0147 18.5 23.0888 21 22.6258 23C22.1628 25 21.6149 28 24.0147 28C27.3404 28 26.8774 20 26.8774 20" stroke="#1434E1" stroke-width="2" stroke-linecap="round"/>
<path d="M31.8851 18C30.4962 18.5 29.5702 21 29.1073 23C28.6443 25 28.0964 28 30.4962 28C33.8219 28 33.3589 20 33.3589 20" stroke="#1434E1" stroke-width="2" stroke-linecap="round"/>
<path d="M20.3704 32C20.3704 32 25 30 30.5555 31" stroke="#1434E1" stroke-width="2" stroke-linecap="round"/>
<path d="M31.4815 34C23.6111 33.102 17.5926 36 17.5926 36" stroke="#1434E1" stroke-width="2" stroke-linecap="round" stroke-linejoin="round"/>
</svg>
