<svg xmlns="http://www.w3.org/2000/svg" width="30" height="30" fill="none" viewBox="0 0 30 30">
    <path fill="#000" d="M17.418 29.805c-.125.02-.25.039-.376.056.126-.017.251-.036.376-.056zM17.718 29.753l-.179.032c.06-.01.12-.02.18-.032zM16.708 29.903c-.147.016-.294.031-.441.043.147-.012.294-.027.44-.043zM16.996 29.868c-.07.01-.141.018-.212.026l.212-.026zM18.127 29.672l-.158.034.158-.034zM19.14 29.42c-.042.013-.085.024-.127.036l.127-.035zM18.834 29.504l-.139.037.14-.037zM18.433 29.605l-.148.033.148-.034zM16.262 29.947l-.238.018.238-.018z"/>
    <path fill="#E2AB3F" d="M30 15c0-8.283-6.717-15-15-15C6.717 0 0 6.717 0 15c0 8.283 6.717 15 15 15l.264-.003V18.32H12.04v-3.756h3.223V11.8c0-3.205 1.956-4.95 4.816-4.95 1.369 0 2.546.103 2.889.148v3.35h-1.972c-1.555 0-1.857.74-1.857 1.824v2.392h3.72l-.485 3.756H19.14v11.1C25.41 27.623 30 21.848 30 15z"/>
    <path fill="#000" d="M15.99 29.967c-.155.01-.312.018-.47.023.158-.005.315-.013.47-.023zM15.513 29.99c-.083.003-.166.005-.25.006.084-.001.167-.003.25-.006z"/>
</svg>
